<svg width="22" height="17" viewBox="0 0 22 17" fill="none" xmlns="http://www.w3.org/2000/svg">
<path fill-rule="evenodd" clip-rule="evenodd" d="M2.75 2.0625H19.25C19.4323 2.0625 19.6072 2.13493 19.7361 2.26386C19.8651 2.3928 19.9375 2.56766 19.9375 2.75V3.5365L11 8.64325L2.0625 3.5365V2.75C2.0625 2.56766 2.13493 2.3928 2.26386 2.26386C2.3928 2.13493 2.56766 2.0625 2.75 2.0625ZM2.0625 5.9125V13.75C2.0625 13.9323 2.13493 14.1072 2.26386 14.2361C2.3928 14.3651 2.56766 14.4375 2.75 14.4375H19.25C19.4323 14.4375 19.6072 14.3651 19.7361 14.2361C19.8651 14.1072 19.9375 13.9323 19.9375 13.75V5.9125L11.5115 10.725L11 11.0192L10.4885 10.725L2.0625 5.9125ZM0 2.75C0 2.02065 0.289731 1.32118 0.805456 0.805456C1.32118 0.289731 2.02065 0 2.75 0H19.25C19.9793 0 20.6788 0.289731 21.1945 0.805456C21.7103 1.32118 22 2.02065 22 2.75V13.75C22 14.4793 21.7103 15.1788 21.1945 15.6945C20.6788 16.2103 19.9793 16.5 19.25 16.5H2.75C2.02065 16.5 1.32118 16.2103 0.805456 15.6945C0.289731 15.1788 0 14.4793 0 13.75V2.75Z" fill="#FF7286"/>
</svg>
